<svg width="24" height="24" viewBox="0 0 24 24" fill="none" xmlns="http://www.w3.org/2000/svg">
    <path
        d="M19.5596 4.81498H17.399V2.99757H15.5985V4.81498H8.39658V2.99757H6.59609V4.81498H4.46468C3.66923 4.81498 3.02429 5.45992 3.02429 6.25537V19.562C3.02429 20.3575 3.66923 21.0024 4.46468 21.0024H19.5596C20.355 21.0024 21 20.3575 21 19.562V6.25537C21 5.45992 20.355 4.81498 19.5596 4.81498ZM19.1995 19.2019H4.79561V10.1995H19.1995V19.2019ZM19.1995 8.39903H4.79561V6.59854H19.1995V8.39903Z"
        fill="#A7A7A7" />
    <path d="M13.0778 12H11.2773V13.8005H13.0778V12Z" fill="#A7A7A7" />
    <path d="M16.6788 12H14.8783V13.8005H16.6788V12Z" fill="#A7A7A7" />
    <path d="M13.0778 15.601H11.2773V17.4015H13.0778V15.601Z" fill="#A7A7A7" />
    <path d="M9.47688 15.601H7.67639V17.4015H9.47688V15.601Z" fill="#A7A7A7" />
</svg>
