<svg width="24" height="24" viewBox="0 0 24 24" fill="none" xmlns="http://www.w3.org/2000/svg">
    <path
        d="M19.4286 5.8125H16.4864L15.2721 3.81738C14.9321 3.31032 14.4071 3 13.8071 3H10.1929C9.59286 3 9.03571 3.31032 8.72857 3.81738L7.51357 5.8125H4.57143C4.25446 5.8125 4 6.06316 4 6.375V6.9375C4 7.25039 4.25446 7.5 4.57143 7.5H5.14286V18.75C5.14286 19.9928 6.16607 21 7.42857 21H16.5714C17.8339 21 18.8571 19.9928 18.8571 18.75V7.5H19.4286C19.7464 7.5 20 7.25039 20 6.9375V6.375C20 6.06316 19.7464 5.8125 19.4286 5.8125ZM10.1393 4.78875C10.175 4.72723 10.2464 4.6875 10.3214 4.6875H13.6786C13.7545 4.6875 13.8259 4.72705 13.8616 4.78857L14.4857 5.8125H9.51429L10.1393 4.78875ZM16.5714 19.3125H7.42857C7.11296 19.3125 6.85714 19.0607 6.85714 18.75V7.5H17.1429V18.75C17.1429 19.0594 16.8857 19.3125 16.5714 19.3125ZM12 17.625C12.3159 17.625 12.5714 17.3734 12.5714 17.0625V9.75C12.5714 9.43908 12.3159 9.1875 12 9.1875C11.6841 9.1875 11.4286 9.44063 11.4286 9.75V17.0625C11.4286 17.3719 11.6857 17.625 12 17.625ZM9.14286 17.625C9.45714 17.625 9.71429 17.3719 9.71429 17.0625V9.75C9.71429 9.43908 9.45871 9.1875 9.14286 9.1875C8.827 9.1875 8.57143 9.44063 8.57143 9.75V17.0625C8.57143 17.3719 8.82857 17.625 9.14286 17.625ZM14.8571 17.625C15.173 17.625 15.4286 17.3734 15.4286 17.0625V9.75C15.4286 9.43908 15.173 9.1875 14.8571 9.1875C14.5413 9.1875 14.2857 9.44063 14.2857 9.75V17.0625C14.2857 17.3719 14.5429 17.625 14.8571 17.625Z"
        fill="#FF4F4F" />
</svg>
