<svg width="24" height="24" viewBox="0 0 24 24" fill="none" xmlns="http://www.w3.org/2000/svg">
    <path fill-rule="evenodd" clip-rule="evenodd"
        d="M22 17V19H8V17H22ZM22 11V13H8V11H22ZM22 5V7H8V5H22ZM4 20C2.89543 20 2 19.1046 2 18C2 16.8954 2.89543 16 4 16C5.10457 16 6 16.8954 6 18C6 19.1046 5.10457 20 4 20ZM4 14C2.89543 14 2 13.1046 2 12C2 10.8954 2.89543 10 4 10C5.10457 10 6 10.8954 6 12C6 13.1046 5.10457 14 4 14ZM4 8C2.89543 8 2 7.10457 2 6C2 4.89543 2.89543 4 4 4C5.10457 4 6 4.89543 6 6C6 7.10457 5.10457 8 4 8Z"
        fill="#33CCCC" />
</svg>
