<svg width="24" height="24" viewBox="0 0 24 24" fill="none" xmlns="http://www.w3.org/2000/svg">
    <path
        d="M17.7143 4H6.28607C5.02357 4 4.0003 5.02321 4.00023 6.28571L4 17.6821C3.99993 18.975 5.02321 20 6.28571 20H14.575C15.4843 20 16.3564 19.6386 16.9996 18.9957L18.9954 16.9996C19.6393 16.325 20 15.4857 20 14.575V6.28571C20 5.02857 18.9714 4 17.7143 4ZM5.88179 18.1179C5.81929 18.0571 5.71429 17.9214 5.71429 17.7143L5.71498 6.31786C5.715 5.97071 5.97143 5.71429 6.28643 5.71429H17.7143C18.0241 5.71429 18.2857 5.976 18.2857 6.28571V13.1429H15.1429C14.0393 13.1429 13.1429 14.0393 13.1429 15.1429V18.2857H6.28571C6.07964 18.2857 5.94429 18.1821 5.88179 18.1179ZM15.7893 17.7821C15.5321 18.0393 15.2071 18.2 14.8571 18.2571V15.1429C14.8571 14.9855 14.9855 14.8571 15.1429 14.8571H18.2582C18.2005 15.2076 18.0398 15.5314 17.7836 15.7875L15.7893 17.7821Z"
        fill="#A7A7A7" />
</svg>
